<?xml version="1.0" encoding="utf-8"?>
<!-- Generator: Adobe Illustrator 19.0.0, SVG Export Plug-In . SVG Version: 6.00 Build 0)  -->
<svg version="1.1" id="Layer_1" xmlns="http://www.w3.org/2000/svg" xmlns:xlink="http://www.w3.org/1999/xlink" x="0px" y="0px"
	 viewBox="52 14 177 47" style="enable-background:new 52 14 177 47;" xml:space="preserve">
<style type="text/css">
	.st0{fill:#8D8F93;}
	.st1{fill:#AD214D;}
	.st2{fill:#B01657;}
	.st3{fill:url(#SVGID_1_);}
</style>
<title>2016_11_30_FAL Logo-new</title>
<g>
	<path class="st0" d="M149.3,39.1V40h-4.3v2.6h3.8v0.9h-3.8v3.8h-1.1v-8.3H149.3z"/>
	<path class="st0" d="M151.5,41.6c0.2-0.5,0.4-1,0.7-1.4c0.3-0.4,0.8-0.7,1.2-1c1.1-0.5,2.4-0.5,3.5,0c0.5,0.2,0.9,0.6,1.2,1
		c0.3,0.4,0.6,0.9,0.7,1.4c0.3,1.1,0.3,2.2,0,3.3c-0.2,0.5-0.4,1-0.7,1.4c-0.3,0.4-0.8,0.7-1.2,1c-1.1,0.5-2.3,0.5-3.5,0
		c-0.5-0.2-0.9-0.5-1.2-1c-0.3-0.4-0.6-0.9-0.7-1.4C151.1,43.8,151.1,42.6,151.5,41.6z M152.5,44.4c0.1,0.4,0.3,0.8,0.5,1.1
		c0.2,0.3,0.5,0.6,0.9,0.8c0.8,0.4,1.8,0.4,2.6,0c0.4-0.2,0.7-0.5,0.9-0.8c0.2-0.3,0.4-0.7,0.5-1.1c0.2-0.8,0.2-1.7,0-2.5
		c-0.1-0.4-0.3-0.8-0.5-1.1c-0.2-0.3-0.5-0.6-0.9-0.8c-0.8-0.4-1.8-0.4-2.6,0c-0.4,0.2-0.7,0.5-0.9,0.8c-0.2,0.3-0.4,0.7-0.5,1.1
		C152.3,42.8,152.3,43.6,152.5,44.4z"/>
	<path class="st0" d="M167.4,46.7c-0.6,0.5-1.4,0.8-2.4,0.8c-1.1,0-1.9-0.3-2.5-0.8c-0.6-0.5-0.9-1.3-0.9-2.4v-5.3h1.1v5.3
		c0,0.7,0.2,1.3,0.6,1.7c0.5,0.4,1.1,0.6,1.7,0.6c0.6,0,1.2-0.2,1.6-0.6c0.4-0.4,0.6-0.9,0.6-1.7v-5.3h1.1v5.3
		C168.3,45.4,168,46.2,167.4,46.7z"/>
	<path class="st0" d="M172.4,39.1l4.4,6.7h0v-6.7h1v8.3h-1.2l-4.3-6.6h0v6.6h-1v-8.3H172.4z"/>
	<path class="st0" d="M183.6,39.1c1.3,0,2.3,0.3,2.9,1c0.7,0.6,1,1.6,1,3c0,0.6-0.1,1.2-0.2,1.8c-0.1,0.5-0.4,1-0.7,1.4
		c-0.3,0.4-0.8,0.7-1.2,0.8c-0.6,0.2-1.2,0.3-1.8,0.3h-2.8v-8.3H183.6z M183.7,46.4c0.2,0,0.3,0,0.5,0c0.2,0,0.4-0.1,0.6-0.1
		c0.2-0.1,0.4-0.2,0.6-0.3c0.2-0.2,0.4-0.3,0.5-0.6c0.2-0.3,0.3-0.6,0.4-0.9c0.1-0.4,0.2-0.9,0.2-1.3c0-0.4,0-0.9-0.1-1.3
		c-0.1-0.4-0.2-0.7-0.5-1c-0.2-0.3-0.5-0.5-0.9-0.6c-0.4-0.2-0.8-0.2-1.3-0.2h-1.9v6.4L183.7,46.4z"/>
	<path class="st0" d="M193.6,39.1l3.2,8.3h-1.2l-0.9-2.5h-3.5l-0.9,2.5h-1.1l3.2-8.3H193.6z M194.4,43.9L193,40h0l-1.4,3.9H194.4z"
		/>
	<path class="st0" d="M196.9,40v-0.9h6.6V40h-2.8v7.3h-1.1V40H196.9z"/>
	<path class="st0" d="M206.8,39.1v8.3h-1.1v-8.3H206.8z"/>
	<path class="st0" d="M209.6,41.6c0.2-0.5,0.4-1,0.7-1.4c0.3-0.4,0.8-0.7,1.2-1c1.1-0.5,2.4-0.5,3.5,0c0.5,0.2,0.9,0.6,1.2,1
		c0.3,0.4,0.6,0.9,0.7,1.4c0.3,1.1,0.3,2.2,0,3.3c-0.2,0.5-0.4,1-0.7,1.4c-0.3,0.4-0.8,0.7-1.2,1c-1.1,0.5-2.3,0.5-3.5,0
		c-0.5-0.2-0.9-0.5-1.2-1c-0.3-0.4-0.6-0.9-0.7-1.4C209.3,43.8,209.3,42.6,209.6,41.6z M210.7,44.4c0.1,0.4,0.3,0.8,0.5,1.1
		c0.2,0.3,0.5,0.6,0.9,0.8c0.8,0.4,1.8,0.4,2.6,0c0.4-0.2,0.7-0.5,0.9-0.8c0.2-0.3,0.4-0.7,0.5-1.1c0.2-0.8,0.2-1.7,0-2.5
		c-0.1-0.4-0.3-0.8-0.5-1.1c-0.2-0.3-0.5-0.6-0.9-0.8c-0.8-0.4-1.8-0.4-2.6,0c-0.4,0.2-0.7,0.5-0.9,0.8c-0.2,0.3-0.4,0.7-0.5,1.1
		C210.4,42.8,210.4,43.6,210.7,44.4z"/>
	<path class="st0" d="M221,39.1l4.4,6.7h0v-6.7h1v8.3h-1.2l-4.3-6.6h0v6.6h-1v-8.3H221z"/>
	<path class="st1" d="M153.5,23.2c-0.8-0.5-1.7-0.8-2.7-0.8c-0.8,0-1.6,0.1-2.3,0.5c-0.6,0.3-1.2,0.8-1.6,1.3
		c-0.4,0.6-0.7,1.2-0.9,1.9c-0.2,0.7-0.3,1.5-0.3,2.2c0,0.8,0.1,1.6,0.3,2.4c0.2,0.7,0.5,1.4,0.9,2c0.4,0.6,0.9,1,1.6,1.3
		c0.7,0.3,1.5,0.5,2.3,0.5c0.6,0,1.2-0.1,1.7-0.3c0.5-0.2,0.9-0.5,1.3-0.9c0.4-0.4,0.7-0.9,0.9-1.4c0.2-0.5,0.3-1.1,0.4-1.7h2
		c-0.2,1.9-0.8,3.3-1.9,4.4c-1.1,1-2.6,1.6-4.5,1.6c-1,0-2.1-0.2-3-0.6c-0.8-0.4-1.6-0.9-2.1-1.6c-0.6-0.7-1-1.6-1.3-2.5
		c-0.3-1-0.4-2-0.4-3c0-1,0.1-2.1,0.5-3c0.3-0.9,0.7-1.8,1.3-2.5c0.6-0.7,1.4-1.3,2.2-1.7c1-0.4,2-0.6,3-0.6c0.7,0,1.5,0.1,2.2,0.3
		c0.7,0.2,1.3,0.5,1.9,0.9c0.5,0.4,1,0.9,1.4,1.5c0.4,0.6,0.6,1.4,0.7,2.1h-2C154.8,24.7,154.3,23.8,153.5,23.2z"/>
	<path class="st1" d="M181.5,21.2c1.4,0,2.5,0.3,3.3,1c0.8,0.7,1.2,1.6,1.2,2.8c0,0.8-0.2,1.7-0.6,2.4c-0.4,0.7-1.2,1.2-2,1.4v0
		c0.4,0.1,0.7,0.2,1,0.4c0.3,0.2,0.5,0.4,0.6,0.7c0.2,0.3,0.3,0.6,0.4,0.9c0.1,0.3,0.1,0.7,0.2,1c0,0.4,0,0.7,0.1,1.1
		c0,0.4,0,0.7,0.1,1.1c0.1,0.3,0.1,0.7,0.2,1c0.1,0.3,0.3,0.6,0.5,0.9h-2.2c-0.2-0.2-0.2-0.4-0.3-0.6c-0.1-0.3-0.1-0.6-0.1-0.9
		c0-0.3,0-0.7,0-1c0-0.4-0.1-0.7-0.1-1.1c-0.1-0.4-0.1-0.7-0.2-1c-0.1-0.3-0.2-0.6-0.4-0.9c-0.2-0.2-0.4-0.4-0.7-0.6
		c-0.4-0.2-0.8-0.2-1.2-0.2h-4.8V36h-2V21.2H181.5z M181.9,27.9c0.4-0.1,0.8-0.2,1.1-0.4c0.3-0.2,0.6-0.5,0.7-0.8
		c0.2-0.4,0.3-0.9,0.3-1.3c0-0.7-0.2-1.3-0.6-1.8c-0.4-0.5-1.1-0.7-2-0.7h-4.9V28h4.1C181,28,181.4,28,181.9,27.9L181.9,27.9z"/>
	<path class="st1" d="M199.1,21.2v1.7h-8.3v4.7h7.7v1.7h-7.7v5.1h8.3V36h-10.3V21.2H199.1z"/>
	<path class="st1" d="M211.9,21.2v1.7h-8.3v4.7h7.7v1.7h-7.7v5.1h8.3V36h-10.3V21.2H211.9z"/>
	<path class="st1" d="M221.5,21.2c1.4,0,2.5,0.3,3.3,1c0.8,0.7,1.2,1.6,1.2,2.8c0,0.8-0.2,1.7-0.6,2.4c-0.4,0.7-1.2,1.2-2,1.4v0
		c0.4,0.1,0.7,0.2,1,0.4c0.3,0.2,0.5,0.4,0.6,0.7c0.2,0.3,0.3,0.6,0.4,0.9c0.1,0.3,0.1,0.7,0.2,1c0,0.4,0,0.7,0.1,1.1
		c0,0.4,0,0.7,0.1,1.1c0.1,0.3,0.1,0.7,0.2,1c0.1,0.3,0.3,0.6,0.5,0.9h-2.2c-0.2-0.2-0.2-0.4-0.3-0.6c-0.1-0.3-0.1-0.6-0.1-0.9
		c0-0.3,0-0.7,0-1c0-0.4-0.1-0.7-0.1-1.1c-0.1-0.4-0.1-0.7-0.2-1c-0.1-0.3-0.2-0.6-0.4-0.9c-0.2-0.2-0.4-0.4-0.7-0.6
		c-0.4-0.2-0.8-0.2-1.2-0.2h-4.8V36h-2V21.2H221.5z M221.9,27.9c0.4-0.1,0.8-0.2,1.1-0.4c0.3-0.2,0.6-0.5,0.7-0.8
		c0.2-0.4,0.3-0.9,0.3-1.3c0-0.7-0.2-1.3-0.6-1.8c-0.4-0.5-1.1-0.7-2-0.7h-4.9V28h4.1C221,28,221.5,28,221.9,27.9L221.9,27.9z"/>
	<path class="st1" d="M171.9,36.5l-6.7-2.7l-6.6,2.7l6.6-15.7L171.9,36.5z M169,33.7l-3.8-8.9l-3.7,8.9l3.7-1.5L169,33.7z"/>
	<path class="st2" d="M85.1,52.4c-3.3,0.9-6.8-0.5-5.8-5.1c0.7-3.2,3-5.7,6.1-6.6c3.2-0.9,6.8,0.5,5.8,5.1
		C90.5,49,88.2,51.5,85.1,52.4 M85.2,41.6c-2.7,0.9-3.8,4.4-3.8,6.5c0,1.9,1.1,4.3,3.9,3.4c2.6-0.9,3.8-4.3,3.8-6.4
		C89.2,43.1,88,40.6,85.2,41.6"/>
	<path class="st2" d="M101.6,42.8l-7.8,9.9h-0.2L92.7,43c-0.1-1.4-0.4-2-0.7-2.4h2.4l0.8,8.7l7-8.7h1.5
		C102.8,41.3,102.6,41.6,101.6,42.8"/>
	<path class="st2" d="M103.3,45.6c-0.3,0.8-0.4,1.6-0.4,2.5c0,1.9,1,4.4,4,3.4c1-0.3,2-0.8,3.3-2.2l0.7,0.7
		c-1.2,1.1-2.6,1.9-4.2,2.4c-3.2,0.9-6.6-0.4-5.9-4.6c0.5-3.3,3-6.1,6.2-7c3.2-0.9,6.6,0.6,5.9,4.9L103.3,45.6z M106.8,41.6
		c-1.4,0.5-2.4,1.7-3.1,3h7C110.6,42.8,109.4,40.7,106.8,41.6"/>
	<path class="st2" d="M114.3,50.1c-0.7,1.8-0.4,2.3-0.4,2.3h-2.3l6.4-16.3c0.7-1.8,0.4-2.3,0.4-2.3l2.5-0.5L114.3,50.1z"/>
	<path class="st2" d="M82.5,55.9h-13c0.8-0.9,1.3-1.7,1.9-3.3l5.4-14.1c0.7-1.7,0.5-2.6,0.5-2.9h3l-7.3,18.9h6.3c2.7,0,3,0,4.6-0.7
		L82.5,55.9z"/>
	<path class="st2" d="M77,30.1c-0.9,2.4-0.6,3.5-0.6,3.5h-2.2c0,0-0.1-0.9,0.9-3.3l0.2-0.6c-1.1,1.6-3.3,3.9-6.1,3.9
		c-1.7,0-3.1-1-3.1-3.1c0-4.6,4.6-9,9.8-9c1.4,0.1,2.8,0.3,4.1,0.7L77,30.1z M68.4,30c0,1.6,0.8,2.3,2,2.3c1.6,0,4.8-2,7.7-9.7
		c-0.5-0.3-1.6-0.5-2.5-0.5C72.1,22.2,68.4,26.1,68.4,30L68.4,30z"/>
	<path class="st2" d="M81.4,31.2C80.7,33,81,33.5,81,33.5h-2.3l3.7-9.4c0.7-1.8,0.4-2.3,0.4-2.3l2.5-0.5L81.4,31.2z M85,19.5
		c-0.6-0.1-0.9-0.8-0.5-1.6c0.3-0.8,1-1.3,1.6-1.2c0.6,0.1,0.9,0.9,0.6,1.6C86.3,19.1,85.5,19.7,85,19.5"/>
	<path class="st2" d="M96.4,23.2c-1.5-0.9-3.1-0.3-4.6,0.7c-2.8,1.9-4.8,5.4-6.6,9.6h-1.8l3.7-9.4c0.7-1.8,0.4-2.3,0.4-2.3l2.5-0.5
		l-2.1,5.3c3.4-4.4,7.7-6,9.3-5.5L96.4,23.2z"/>
	<path class="st2" d="M70.7,16c1.3-0.1,2.5,0.1,3.7,0.6l-0.2-1.8H62.5c0.1,0.3,0.2,1.1-0.5,2.9l-5.6,14.1c-0.6,1.6-1.1,2.4-2,3.3
		h3.1l4.1-10.4h3.8c2.2,0,2.4-1.3,2.4-1.3h-5.7l2.9-7.4L70.7,16z"/>
	<path class="st2" d="M126,53.8c-2,5.1-6.2,6.3-11.1,5.6l0.4-0.9c5.4,1.3,7.8-2.1,8.8-4.7l2.5-6.3c-2.1,2.7-5.4,5.1-7.5,5.2
		c-2.7,0.1-2-2.8-1.2-4.9l1.8-4.5c0.7-1.8,0.4-2.3,0.4-2.3l2.5-0.5l-2.9,7.3c-0.6,1.6-0.6,3.5,0.7,3.4c0.8,0,1.5-0.5,2.3-1
		c2.6-1.6,4.9-5.8,6.5-9.5h1.8L126,53.8z"/>
	<path class="st2" d="M137.8,59.9c0,0.2-0.1,0.3-0.3,0.3l0,0c-0.2,0-0.3-0.1-0.3-0.3c0,0,0,0,0,0V17c0-0.2,0.1-0.3,0.3-0.3
		c0,0,0,0,0,0l0,0c0.2,0,0.3,0.1,0.3,0.3V59.9z"/>
	
		<linearGradient id="SVGID_1_" gradientUnits="userSpaceOnUse" x1="159.9847" y1="-83.6952" x2="181.9805" y2="-83.6952" gradientTransform="matrix(1 0 0 -1 -64.5942 -57.7785)">
		<stop  offset="0.533" style="stop-color:#A8AAAC"/>
		<stop  offset="0.6978" style="stop-color:#F1F1F1"/>
		<stop  offset="1" style="stop-color:#A8AAAC"/>
	</linearGradient>
	<path class="st3" d="M109.8,24.7c0.3-1.4-2.9-1.4-2.9-1.4c-0.7-1-1-2.2-0.7-3.4c0.6-2.5,2.6-3.6,4.7-3.8c1.8-0.2,3.8,0.3,4.1,2.3
		c0.2,1-0.2,2-1,2.5c0,0,0.8,0,1.4-1.1c0.6-1.2,0.4-3.2-1.7-4.1c-2.2-1-5.5-0.5-7.3,1.2c-3.8,3.3-1.2,6.7-1.2,6.7s-7.1,1.1-9.2,5.8
		c-0.9,1.9-0.5,3.5,0.4,4.7c1,1.3,3.4,3,7.9,2.2c2-0.4,3.8-1.2,5.4-2.5c3.4-2.8,2.5-6,2.5-6c0.8,0,1.6-0.1,2.4-0.4
		c1.3-0.4,2.4-1.2,2.9-2.4c0,0-0.6,0.9-2.5,1.4c-1.8,0.5-3.3,0.3-4.6,0.2c-3.8-0.2-4.9,1.5-4.9,1.5s2-1.3,3.5-0.7
		c0.9,0.3,2.3,1.9,1.1,4.4c-0.9,1.7-4.9,4.9-9.3,3.8c-3.8-1-3.5-5.7-1.5-8c1.7-1.9,4-3,6.5-3.4c0.6,0.4,1.2,0.7,1.9,0.8
		C109.2,25.4,109.7,25.1,109.8,24.7z"/>
</g>
</svg>
